<svg width="21" height="20" viewBox="0 0 21 20" fill="none" xmlns="http://www.w3.org/2000/svg">
<path d="M9 12H16.5V10H11L9 12ZM4.5 12H6.95L12.85 6.15C12.95 6.05 13 5.925 13 5.775C13 5.625 12.95 5.5 12.85 5.4L11.1 3.65C11 3.55 10.875 3.5 10.725 3.5C10.575 3.5 10.45 3.55 10.35 3.65L4.5 9.55V12ZM0.5 20V2C0.5 1.45 0.696 0.979 1.088 0.587C1.47933 0.195667 1.95 0 2.5 0H18.5C19.05 0 19.521 0.195667 19.913 0.587C20.3043 0.979 20.5 1.45 20.5 2V14C20.5 14.55 20.3043 15.021 19.913 15.413C19.521 15.8043 19.05 16 18.5 16H4.5L0.5 20ZM2.5 15.175L3.675 14H18.5V2H2.5V15.175Z" fill="#AEAEAE"/>
</svg>
