<svg width="23" height="21" viewBox="0 0 23 21" fill="none" xmlns="http://www.w3.org/2000/svg">
<path d="M21.4375 9.82812L17.2 13.3531L18.5406 18.8C18.6023 19.0283 18.6107 19.2677 18.5654 19.4998C18.52 19.7319 18.4221 19.9505 18.279 20.1389C18.136 20.3272 17.9516 20.4802 17.7402 20.5861C17.5288 20.6921 17.2959 20.7481 17.0594 20.75C16.7697 20.7487 16.4866 20.6641 16.2438 20.5062L11.5094 17.5156H11.4906L7.09375 20.3C6.80972 20.4792 6.47867 20.5696 6.14298 20.5596C5.80729 20.5495 5.48222 20.4396 5.20938 20.2438C4.92829 20.0386 4.71539 19.7537 4.59836 19.426C4.48132 19.0983 4.46556 18.743 4.55313 18.4062L5.81875 13.4281L1.5625 9.82812C1.32103 9.62635 1.14553 9.35686 1.05864 9.05442C0.971748 8.75197 0.977448 8.43043 1.075 8.13125C1.17 7.83659 1.35123 7.57722 1.59525 7.38668C1.83927 7.19614 2.13485 7.08321 2.44375 7.0625L7.975 6.70625L10.075 1.475C10.1876 1.1885 10.3837 0.94241 10.6377 0.768579C10.8918 0.594748 11.1922 0.501184 11.5 0.5C11.8078 0.501184 12.1082 0.594748 12.3623 0.768579C12.6164 0.94241 12.8124 1.1885 12.925 1.475L14.9875 6.67813L20.5563 7.0625C20.8655 7.08195 21.1617 7.19441 21.406 7.38513C21.6502 7.57585 21.8311 7.83592 21.925 8.13125C22.0226 8.43043 22.0283 8.75197 21.9414 9.05442C21.8545 9.35686 21.679 9.62635 21.4375 9.82812Z" fill="#FBD300"/>
</svg>
